<svg xmlns="http://www.w3.org/2000/svg" viewBox="0 0 64 160">
  <defs>
    <linearGradient id="dg" x1="0" y1="0" x2="1" y2="1">
      <stop offset="0%" stop-color="#E0F8FF"/>
      <stop offset="50%" stop-color="#5BCEFA"/>
      <stop offset="100%" stop-color="#0099CC"/>
    </linearGradient>
    <linearGradient id="dsh" x1="0" y1="0" x2="0" y2="1">
      <stop offset="0%" stop-color="white" stop-opacity="0.7"/>
      <stop offset="100%" stop-color="white" stop-opacity="0"/>
    </linearGradient>
  </defs>
  <!-- Bowl -->
  <ellipse cx="32" cy="34" rx="24" ry="30" fill="url(#dg)"/>
  <!-- Bowl inner highlight -->
  <ellipse cx="26" cy="22" rx="10" ry="14" fill="url(#dsh)"/>
  <!-- Neck -->
  <path d="M24,58 C22,70 24,80 29,84 L35,84 C40,80 42,70 40,58 Z" fill="url(#dg)"/>
  <!-- Handle -->
  <path d="M29,84 L27,150 Q32,156 37,150 L35,84 Z" fill="url(#dg)"/>
  <!-- Handle highlight -->
  <path d="M30,88 L29,145" stroke="white" stroke-width="1.5" stroke-opacity="0.4" stroke-linecap="round"/>
  <!-- Sparkles -->
  <circle cx="52" cy="12" r="3" fill="#B9F2FF" opacity="0.9"/>
  <circle cx="14" cy="8" r="2" fill="#E0F8FF" opacity="0.8"/>
  <circle cx="56" cy="40" r="2" fill="#5BCEFA" opacity="0.7"/>
  <path d="M52,6 L53,10 L57,11 L53,12 L52,16 L51,12 L47,11 L51,10 Z" fill="white" opacity="0.9"/>
  <path d="M10,20 L11,23 L14,24 L11,25 L10,28 L9,25 L6,24 L9,23 Z" fill="#B9F2FF" opacity="0.8"/>
</svg>
